<svg xmlns="http://www.w3.org/2000/svg" xmlns:xlink="http://www.w3.org/1999/xlink" width="1920" zoomAndPan="magnify" viewBox="0 0 1440 809.999993" height="1080" preserveAspectRatio="xMidYMid meet" version="1.0"><defs><clipPath id="7df2ee6cfa"><path d="M 256 147 L 973 147 L 973 729 L 256 729 Z M 256 147 " clip-rule="nonzero"/></clipPath><clipPath id="6e89d100b9"><path d="M 934.820312 147.496094 L 972.402344 195.226562 L 293.707031 729.554688 L 256.125 681.820312 Z M 934.820312 147.496094 " clip-rule="nonzero"/></clipPath><clipPath id="be754e9202"><path d="M 934.820312 147.496094 L 972.050781 194.78125 L 293.488281 729 L 256.261719 681.714844 Z M 934.820312 147.496094 " clip-rule="nonzero"/></clipPath><clipPath id="afc47280d2"><path d="M 797 40 L 1440 40 L 1440 655 L 797 655 Z M 797 40 " clip-rule="nonzero"/></clipPath><clipPath id="b426e2897f"><path d="M 1541.476562 40.871094 L 1563.789062 69.210938 L 819.464844 655.210938 L 797.152344 626.867188 Z M 1541.476562 40.871094 " clip-rule="nonzero"/></clipPath><clipPath id="621d033de2"><path d="M 1541.476562 40.871094 L 1563.789062 69.210938 L 819.871094 654.886719 L 797.5625 626.546875 Z M 1541.476562 40.871094 " clip-rule="nonzero"/></clipPath><clipPath id="814f52a53c"><path d="M 170 626 L 720 626 L 720 810 L 170 810 Z M 170 626 " clip-rule="nonzero"/></clipPath><clipPath id="67db78572f"><path d="M 699.910156 626.546875 L 720.265625 652.402344 L 190.734375 1069.292969 L 170.378906 1043.4375 Z M 699.910156 626.546875 " clip-rule="nonzero"/></clipPath><clipPath id="c8a072d499"><path d="M 699.910156 626.546875 L 719.996094 652.058594 L 190.46875 1068.945312 L 170.382812 1043.433594 Z M 699.910156 626.546875 " clip-rule="nonzero"/></clipPath><clipPath id="cf89eb0c9d"><path d="M 346 0 L 916 0 L 916 406 L 346 406 Z M 346 0 " clip-rule="nonzero"/></clipPath><clipPath id="dbb68033d3"><path d="M 875.542969 -62.046875 L 915.078125 -11.828125 L 385.546875 405.066406 L 346.011719 354.847656 Z M 875.542969 -62.046875 " clip-rule="nonzero"/></clipPath><clipPath id="25f8d7562d"><path d="M 875.542969 -62.046875 L 915.03125 -11.886719 L 385.507812 405.003906 L 346.015625 354.84375 Z M 875.542969 -62.046875 " clip-rule="nonzero"/></clipPath><clipPath id="d009f3d262"><path d="M 0 212 L 257 212 L 257 655 L 0 655 Z M 0 212 " clip-rule="nonzero"/></clipPath><clipPath id="5bff26a95d"><path d="M 236.175781 212.484375 L 256.53125 238.339844 L -273 655.230469 L -293.355469 629.375 Z M 236.175781 212.484375 " clip-rule="nonzero"/></clipPath><clipPath id="1786cc4c4e"><path d="M 236.175781 212.484375 L 256.261719 237.996094 L -273.265625 654.886719 L -293.351562 629.371094 Z M 236.175781 212.484375 " clip-rule="nonzero"/></clipPath></defs><g clip-path="url(#7df2ee6cfa)"><g clip-path="url(#6e89d100b9)"><g clip-path="url(#be754e9202)"><path fill="#e9580e" d="M 934.820312 147.496094 L 972.007812 194.730469 L 293.3125 729.058594 L 256.125 681.820312 Z M 934.820312 147.496094 " fill-opacity="1" fill-rule="nonzero"/></g></g></g><g clip-path="url(#afc47280d2)"><g clip-path="url(#b426e2897f)"><g clip-path="url(#621d033de2)"><path fill="#e9580e" d="M 1541.476562 40.871094 L 1563.789062 69.210938 L 819.960938 654.820312 L 797.648438 626.476562 Z M 1541.476562 40.871094 " fill-opacity="1" fill-rule="nonzero"/></g></g></g><g clip-path="url(#814f52a53c)"><g clip-path="url(#67db78572f)"><g clip-path="url(#c8a072d499)"><path fill="#e9580e" d="M 699.910156 626.546875 L 719.875 651.902344 L 190.34375 1068.796875 L 170.378906 1043.4375 Z M 699.910156 626.546875 " fill-opacity="1" fill-rule="nonzero"/></g></g></g><g clip-path="url(#cf89eb0c9d)"><g clip-path="url(#dbb68033d3)"><g clip-path="url(#25f8d7562d)"><path fill="#e9580e" d="M 875.542969 -62.046875 L 915.078125 -11.828125 L 385.546875 405.066406 L 346.011719 354.847656 Z M 875.542969 -62.046875 " fill-opacity="1" fill-rule="nonzero"/></g></g></g><g clip-path="url(#d009f3d262)"><g clip-path="url(#5bff26a95d)"><g clip-path="url(#1786cc4c4e)"><path fill="#e9580e" d="M 236.175781 212.484375 L 256.140625 237.84375 L -273.390625 654.734375 L -293.355469 629.375 Z M 236.175781 212.484375 " fill-opacity="1" fill-rule="nonzero"/></g></g></g></svg>