<svg xmlns="http://www.w3.org/2000/svg" xmlns:xlink="http://www.w3.org/1999/xlink" width="1920" zoomAndPan="magnify" viewBox="0 0 1440 809.999993" height="1080" preserveAspectRatio="xMidYMid meet" version="1.0"><defs><clipPath id="5b45bdf894"><path d="M 688 0 L 1381 0 L 1381 365 L 688 365 Z M 688 0 " clip-rule="nonzero"/></clipPath><clipPath id="e69f05c3e8"><path d="M 1333.855469 -202.316406 L 1380.4375 -143.148438 L 735.058594 364.953125 L 688.476562 305.785156 Z M 1333.855469 -202.316406 " clip-rule="nonzero"/></clipPath><clipPath id="15f266ea52"><path d="M 1333.855469 -202.316406 L 1380.058594 -143.628906 L 734.871094 364.316406 L 688.671875 305.632812 Z M 1333.855469 -202.316406 " clip-rule="nonzero"/></clipPath><clipPath id="75095c3826"><path d="M 852 379 L 1440 379 L 1440 810 L 852 810 Z M 852 379 " clip-rule="nonzero"/></clipPath><clipPath id="bae2af7204"><path d="M 1497.21875 379.582031 L 1543.800781 438.75 L 898.421875 946.847656 L 851.839844 887.679688 Z M 1497.21875 379.582031 " clip-rule="nonzero"/></clipPath><clipPath id="1db203cb41"><path d="M 1497.21875 379.582031 L 1543.421875 438.265625 L 898.234375 946.214844 L 852.03125 887.527344 Z M 1497.21875 379.582031 " clip-rule="nonzero"/></clipPath><clipPath id="885e6136f8"><path d="M 511 162 L 1079 162 L 1079 627 L 511 627 Z M 511 162 " clip-rule="nonzero"/></clipPath><clipPath id="ad89a2b007"><path d="M 1041.113281 162.371094 L 1078.695312 210.101562 L 549.164062 626.996094 L 511.582031 579.261719 Z M 1041.113281 162.371094 " clip-rule="nonzero"/></clipPath><clipPath id="ce8096e9ec"><path d="M 1041.113281 162.371094 L 1078.34375 209.65625 L 548.816406 626.542969 L 511.589844 579.257812 Z M 1041.113281 162.371094 " clip-rule="nonzero"/></clipPath><clipPath id="44fcb1c0d8"><path d="M 864 391 L 1440 391 L 1440 810 L 864 810 Z M 864 391 " clip-rule="nonzero"/></clipPath><clipPath id="5d1bcd2462"><path d="M 1509.21875 391.582031 L 1555.800781 450.75 L 910.421875 958.847656 L 863.839844 899.679688 Z M 1509.21875 391.582031 " clip-rule="nonzero"/></clipPath><clipPath id="8078fc8134"><path d="M 1509.21875 391.582031 L 1555.421875 450.265625 L 910.234375 958.214844 L 864.03125 899.527344 Z M 1509.21875 391.582031 " clip-rule="nonzero"/></clipPath></defs><g clip-path="url(#5b45bdf894)"><g clip-path="url(#e69f05c3e8)"><g clip-path="url(#15f266ea52)"><path fill="#e9580e" d="M 1333.855469 -202.316406 L 1380.046875 -143.644531 L 734.667969 364.457031 L 688.476562 305.785156 Z M 1333.855469 -202.316406 " fill-opacity="1" fill-rule="nonzero"/></g></g></g><g clip-path="url(#75095c3826)"><g clip-path="url(#bae2af7204)"><g clip-path="url(#1db203cb41)"><path fill="#e9580e" d="M 1497.21875 379.582031 L 1543.410156 438.253906 L 898.03125 946.351562 L 851.839844 887.679688 Z M 1497.21875 379.582031 " fill-opacity="1" fill-rule="nonzero"/></g></g></g><g clip-path="url(#885e6136f8)"><g clip-path="url(#ad89a2b007)"><g clip-path="url(#ce8096e9ec)"><path fill="#e9580e" d="M 1041.113281 162.371094 L 1078.300781 209.605469 L 548.769531 626.496094 L 511.582031 579.261719 Z M 1041.113281 162.371094 " fill-opacity="1" fill-rule="nonzero"/></g></g></g><g clip-path="url(#44fcb1c0d8)"><g clip-path="url(#5d1bcd2462)"><g clip-path="url(#8078fc8134)"><path fill="#e9580e" d="M 1509.21875 391.582031 L 1555.410156 450.253906 L 910.03125 958.351562 L 863.839844 899.679688 Z M 1509.21875 391.582031 " fill-opacity="1" fill-rule="nonzero"/></g></g></g></svg>