<svg xmlns="http://www.w3.org/2000/svg" xmlns:xlink="http://www.w3.org/1999/xlink" width="1920" zoomAndPan="magnify" viewBox="0 0 1440 809.999993" height="1080" preserveAspectRatio="xMidYMid meet" version="1.0"><defs><filter x="0%" y="0%" width="100%" height="100%" id="6776ce4159"><feColorMatrix values="0 0 0 0 1 0 0 0 0 1 0 0 0 0 1 0 0 0 1 0" color-interpolation-filters="sRGB"/></filter><clipPath id="2f91f560fa"><path d="M 778 0 L 1440 0 L 1440 407 L 778 407 Z M 778 0 " clip-rule="nonzero"/></clipPath><clipPath id="6ab1c880eb"><path d="M 778.359375 394.242188 L 1657.371094 -292.789062 L 1667.113281 -280.324219 L 788.101562 406.707031 Z M 778.359375 394.242188 " clip-rule="nonzero"/></clipPath><clipPath id="13921ba546"><path d="M 778.359375 394.242188 L 1657.21875 -292.667969 L 1666.664062 -280.585938 L 787.804688 406.324219 Z M 778.359375 394.242188 " clip-rule="nonzero"/></clipPath><clipPath id="0053547abe"><path d="M 367 0 L 1073 0 L 1073 285 L 367 285 Z M 367 0 " clip-rule="nonzero"/></clipPath><clipPath id="ec978b542f"><path d="M 367.371094 242.726562 L 1040.351562 -284.535156 L 1073.132812 -242.691406 L 400.152344 284.570312 Z M 367.371094 242.726562 " clip-rule="nonzero"/></clipPath><clipPath id="b60f7f1c5e"><path d="M 367.371094 242.726562 L 1040.054688 -284.304688 L 1072.628906 -242.726562 L 399.945312 284.300781 Z M 367.371094 242.726562 " clip-rule="nonzero"/></clipPath><clipPath id="d2ac7e4aed"><path d="M 668 195 L 1440 195 L 1440 810 L 668 810 Z M 668 195 " clip-rule="nonzero"/></clipPath><clipPath id="e376f62c2c"><path d="M 668.089844 835.621094 L 1486.027344 194.792969 L 1518.808594 236.636719 L 700.871094 877.464844 Z M 668.089844 835.621094 " clip-rule="nonzero"/></clipPath><clipPath id="02c636634b"><path d="M 668.089844 835.621094 L 1485.734375 195.019531 L 1518.308594 236.597656 L 700.664062 877.199219 Z M 668.089844 835.621094 " clip-rule="nonzero"/></clipPath><mask id="3f543282d7"><g filter="url(#6776ce4159)"><rect x="-144" width="1728" fill="#000000" y="-80.999999" height="971.999992" fill-opacity="0.8667"/></g></mask><clipPath id="b1561213ff"><path d="M 0 0 L 1440 0 L 1440 810 L 0 810 Z M 0 0 " clip-rule="nonzero"/></clipPath><clipPath id="ec512b927d"><path d="M -42.417969 868.570312 L 1555.554688 -380.402344 L 1575.429688 -354.972656 L -22.542969 894 Z M -42.417969 868.570312 " clip-rule="nonzero"/></clipPath><clipPath id="d9a385dd44"><path d="M -29.808594 858.714844 L 1542.820312 -370.445312 C 1546.164062 -373.058594 1550.410156 -374.238281 1554.625 -373.722656 C 1558.835938 -373.207031 1562.671875 -371.035156 1565.285156 -367.691406 C 1567.898438 -364.347656 1569.078125 -360.101562 1568.5625 -355.890625 C 1568.042969 -351.675781 1565.875 -347.839844 1562.53125 -345.226562 L -10.097656 883.933594 C -13.441406 886.546875 -17.6875 887.726562 -21.898438 887.210938 C -26.113281 886.691406 -29.949219 884.523438 -32.5625 881.179688 C -35.175781 877.835938 -36.355469 873.589844 -35.835938 869.378906 C -35.320312 865.164062 -33.152344 861.328125 -29.808594 858.714844 " clip-rule="nonzero"/></clipPath><clipPath id="2cd7ffd9f4"><path d="M 0 0 L 1440 0 L 1440 810 L 0 810 Z M 0 0 " clip-rule="nonzero"/></clipPath><clipPath id="9a29290bca"><path d="M -42.417969 868.570312 L 1555.425781 -380.300781 L 1575.289062 -354.890625 L -22.558594 893.980469 Z M -42.417969 868.570312 " clip-rule="nonzero"/></clipPath><clipPath id="b82ee1d2d3"><path d="M -42.320312 868.492188 L 1557.949219 -382.269531 L 1579.152344 -355.144531 L -21.117188 895.621094 Z M -42.320312 868.492188 " clip-rule="nonzero"/></clipPath><clipPath id="42d45136cc"><path d="M -29.710938 858.640625 L 1542.722656 -370.367188 C 1546.066406 -372.980469 1550.316406 -374.148438 1554.542969 -373.617188 C 1558.769531 -373.082031 1562.625 -370.886719 1565.257812 -367.519531 C 1567.894531 -364.148438 1569.089844 -359.878906 1568.585938 -355.648438 C 1568.085938 -351.417969 1565.925781 -347.574219 1562.582031 -344.960938 L -9.851562 884.050781 C -13.195312 886.664062 -17.449219 887.832031 -21.675781 887.296875 C -25.902344 886.761719 -29.753906 884.566406 -32.390625 881.199219 C -35.023438 877.828125 -36.21875 873.558594 -35.71875 869.328125 C -35.214844 865.097656 -33.054688 861.253906 -29.710938 858.640625 " clip-rule="nonzero"/></clipPath><clipPath id="90f7e26e44"><rect x="0" width="1440" y="0" height="810"/></clipPath><clipPath id="b6d9464871"><path d="M 926 0 L 1440 0 L 1440 506 L 926 506 Z M 926 0 " clip-rule="nonzero"/></clipPath><clipPath id="33596d6ca5"><path d="M 926.945312 463.667969 L 1599.925781 -63.589844 L 1632.707031 -21.746094 L 959.730469 505.511719 Z M 926.945312 463.667969 " clip-rule="nonzero"/></clipPath><clipPath id="aa99948b39"><path d="M 926.945312 463.667969 L 1599.632812 -63.359375 L 1632.203125 -21.785156 L 959.519531 505.246094 Z M 926.945312 463.667969 " clip-rule="nonzero"/></clipPath></defs><g clip-path="url(#2f91f560fa)"><g clip-path="url(#6ab1c880eb)"><g clip-path="url(#13921ba546)"><path fill="#000000" d="M 778.359375 394.242188 L 1657.371094 -292.789062 L 1666.722656 -280.820312 L 787.710938 406.210938 Z M 778.359375 394.242188 " fill-opacity="1" fill-rule="nonzero"/></g></g></g><g clip-path="url(#0053547abe)"><g clip-path="url(#ec978b542f)"><g clip-path="url(#b60f7f1c5e)"><path fill="#222222" d="M 367.371094 242.726562 L 1039.851562 -284.144531 L 1072.246094 -242.796875 L 399.761719 284.070312 Z M 367.371094 242.726562 " fill-opacity="1" fill-rule="nonzero"/></g></g></g><g clip-path="url(#d2ac7e4aed)"><g clip-path="url(#e376f62c2c)"><g clip-path="url(#02c636634b)"><path fill="#222222" d="M 668.089844 835.621094 L 1485.527344 195.183594 L 1517.921875 236.527344 L 700.484375 876.96875 Z M 668.089844 835.621094 " fill-opacity="1" fill-rule="nonzero"/></g></g></g><g mask="url(#3f543282d7)"><g transform="matrix(1, 0, 0, 1, 0, 0.000000000000039746)"><g clip-path="url(#90f7e26e44)"><g clip-path="url(#b1561213ff)"><g clip-path="url(#ec512b927d)"><g clip-path="url(#d9a385dd44)"><path fill="#222222" d="M -42.417969 868.570312 L 1555.554688 -380.402344 L 1575.429688 -354.972656 L -22.542969 894 Z M -42.417969 868.570312 " fill-opacity="1" fill-rule="nonzero"/></g></g></g><g clip-path="url(#2cd7ffd9f4)"><g clip-path="url(#9a29290bca)"><g clip-path="url(#b82ee1d2d3)"><g clip-path="url(#42d45136cc)"><path stroke-linecap="butt" transform="matrix(0.590919, -0.46186, 0.465412, 0.595463, -42.318899, 868.494048)" fill="none" stroke-linejoin="miter" d="M 21.335444 0.000962004 L 2682.33208 0.00276752 C 2687.990491 0.00295941 2693.414212 2.248329 2697.418109 6.246046 C 2701.418798 10.247836 2703.666515 15.677974 2703.667596 21.333555 C 2703.669572 26.996391 2701.419626 32.421367 2697.416686 36.421063 C 2693.41785 40.423943 2687.992511 42.670937 2682.334101 42.670745 L 21.334257 42.673012 C 15.675847 42.67282 10.248022 40.424268 6.247332 36.422478 C 2.246643 32.420688 0.00302964 26.993733 -0.00215437 21.334969 C -0.0000274195 15.675317 2.249919 10.25034 6.248755 6.247461 C 10.251695 2.247765 15.677034 0.000770111 21.335444 0.000962004 " stroke="#222222" stroke-width="30" stroke-opacity="1" stroke-miterlimit="4"/></g></g></g></g></g></g></g><g clip-path="url(#b6d9464871)"><g clip-path="url(#33596d6ca5)"><g clip-path="url(#aa99948b39)"><path fill="#222222" d="M 926.945312 463.667969 L 1599.425781 -63.199219 L 1631.820312 -21.855469 L 959.339844 505.015625 Z M 926.945312 463.667969 " fill-opacity="1" fill-rule="nonzero"/></g></g></g></svg>