<svg xmlns="http://www.w3.org/2000/svg" xmlns:xlink="http://www.w3.org/1999/xlink" width="1920" zoomAndPan="magnify" viewBox="0 0 1440 809.999993" height="1080" preserveAspectRatio="xMidYMid meet" version="1.0"><defs><clipPath id="ea6b16ffde"><path d="M 496 0 L 1160 0 L 1160 474 L 496 474 Z M 496 0 " clip-rule="nonzero"/></clipPath><clipPath id="b7f8a54c84"><path d="M 1142.019531 -57.207031 L 1160.027344 -34.335938 L 514.644531 473.765625 L 496.640625 450.890625 Z M 1142.019531 -57.207031 " clip-rule="nonzero"/></clipPath><clipPath id="5b9ecc21cd"><path d="M 1142.019531 -57.207031 L 1159.699219 -34.753906 L 514.511719 473.195312 L 496.832031 450.738281 Z M 1142.019531 -57.207031 " clip-rule="nonzero"/></clipPath><clipPath id="9b67a9979f"><path d="M 1078 0 L 1440 0 L 1440 304 L 1078 304 Z M 1078 0 " clip-rule="nonzero"/></clipPath><clipPath id="a7fb417bc5"><path d="M 1723.527344 -240.035156 L 1751.710938 -204.238281 L 1106.328125 303.863281 L 1078.144531 268.0625 Z M 1723.527344 -240.035156 " clip-rule="nonzero"/></clipPath><clipPath id="46092c89b0"><path d="M 1723.527344 -240.035156 L 1751.335938 -204.714844 L 1106.148438 303.230469 L 1078.339844 267.910156 Z M 1723.527344 -240.035156 " clip-rule="nonzero"/></clipPath><clipPath id="5eece9b665"><path d="M 415 570 L 1079 570 L 1079 810 L 415 810 Z M 415 570 " clip-rule="nonzero"/></clipPath><clipPath id="ce5171fef9"><path d="M 1060.660156 570.335938 L 1078.667969 593.207031 L 433.285156 1101.308594 L 415.277344 1078.4375 Z M 1060.660156 570.335938 " clip-rule="nonzero"/></clipPath><clipPath id="c672b85a7a"><path d="M 1060.660156 570.335938 L 1078.339844 592.792969 L 433.152344 1100.738281 L 415.472656 1078.28125 Z M 1060.660156 570.335938 " clip-rule="nonzero"/></clipPath><clipPath id="80ca41ef37"><path d="M 0 755 L 627 755 L 627 810 L 0 810 Z M 0 755 " clip-rule="nonzero"/></clipPath><clipPath id="728ba4b985"><path d="M 608.480469 755.898438 L 626.488281 778.773438 L -18.894531 1286.871094 L -36.902344 1264 Z M 608.480469 755.898438 " clip-rule="nonzero"/></clipPath><clipPath id="43ab7c28a5"><path d="M 608.480469 755.898438 L 626.160156 778.355469 L -19.027344 1286.300781 L -36.707031 1263.847656 Z M 608.480469 755.898438 " clip-rule="nonzero"/></clipPath></defs><g clip-path="url(#ea6b16ffde)"><g clip-path="url(#b7f8a54c84)"><g clip-path="url(#5b9ecc21cd)"><path fill="#e9580e" d="M 1142.019531 -57.207031 L 1159.636719 -34.832031 L 514.253906 473.265625 L 496.640625 450.890625 Z M 1142.019531 -57.207031 " fill-opacity="1" fill-rule="nonzero"/></g></g></g><g clip-path="url(#9b67a9979f)"><g clip-path="url(#a7fb417bc5)"><g clip-path="url(#46092c89b0)"><path fill="#e9580e" d="M 1723.527344 -240.035156 L 1751.320312 -204.734375 L 1105.9375 303.363281 L 1078.144531 268.0625 Z M 1723.527344 -240.035156 " fill-opacity="1" fill-rule="nonzero"/></g></g></g><g clip-path="url(#5eece9b665)"><g clip-path="url(#ce5171fef9)"><g clip-path="url(#c672b85a7a)"><path fill="#e9580e" d="M 1060.660156 570.335938 L 1078.277344 592.710938 L 432.894531 1100.8125 L 415.277344 1078.4375 Z M 1060.660156 570.335938 " fill-opacity="1" fill-rule="nonzero"/></g></g></g><g clip-path="url(#80ca41ef37)"><g clip-path="url(#728ba4b985)"><g clip-path="url(#43ab7c28a5)"><path fill="#e9580e" d="M 608.480469 755.898438 L 626.09375 778.273438 L -19.285156 1286.375 L -36.902344 1264 Z M 608.480469 755.898438 " fill-opacity="1" fill-rule="nonzero"/></g></g></g></svg>